<?xml version="1.0" encoding="UTF-8" standalone="no"?>
<!-- Created with Inkscape (http://www.inkscape.org/) -->

<svg
   xmlns:dc="http://purl.org/dc/elements/1.1/"
   xmlns:cc="http://creativecommons.org/ns#"
   xmlns:rdf="http://www.w3.org/1999/02/22-rdf-syntax-ns#"
   xmlns:svg="http://www.w3.org/2000/svg"
   xmlns="http://www.w3.org/2000/svg"
   xmlns:sodipodi="http://sodipodi.sourceforge.net/DTD/sodipodi-0.dtd"
   xmlns:inkscape="http://www.inkscape.org/namespaces/inkscape"
   width="100.23533"
   height="100.40152"
   viewBox="0 0 26.520597 26.564568"
   version="1.1"
   id="svg8"
   inkscape:version="0.92.4 (33fec40, 2019-01-16)"
   sodipodi:docname="firer.svg">
  <defs
     id="defs2" />
  <sodipodi:namedview
     id="base"
     pagecolor="#ffffff"
     bordercolor="#666666"
     borderopacity="1.0"
     inkscape:pageopacity="0.0"
     inkscape:pageshadow="2"
     inkscape:zoom="7.9195959"
     inkscape:cx="9.7925393"
     inkscape:cy="50.038795"
     inkscape:document-units="mm"
     inkscape:current-layer="layer1"
     showgrid="false"
     inkscape:window-width="2560"
     inkscape:window-height="1378"
     inkscape:window-x="0"
     inkscape:window-y="34"
     inkscape:window-maximized="1"
     units="px" />
  <metadata
     id="metadata5">
    <rdf:RDF>
      <cc:Work
         rdf:about="">
        <dc:format>image/svg+xml</dc:format>
        <dc:type
           rdf:resource="http://purl.org/dc/dcmitype/StillImage" />
        <dc:title></dc:title>
      </cc:Work>
    </rdf:RDF>
  </metadata>
  <g
     transform="translate(0.0315375,-270.4314)">
    <path
       style="fill:#000000;fill-opacity:1;stroke:#000000;stroke-width:0;stroke-linecap:round;stroke-linejoin:miter;stroke-miterlimit:4;stroke-dasharray:none;stroke-opacity:1"
       d="m 10.859695,296.52825 c 0,0 -8.9449934,-0.43314 -9.0537544,-6.94902 -0.1086139,-6.50707 7.3176902,-11.6259 9.2542064,-18.57522 1.569022,10.55683 12.932719,11.69244 12.695304,18.90932 -0.101322,5.67974 -10.156242,6.64833 -10.156242,6.64833 0,0 6.013563,-1.43657 5.679477,-4.87767 0.03341,-2.93997 -2.639287,-3.67496 -4.109269,-6.14721 -0.777706,2.01011 -2.037931,3.14042 -2.80633,3.17383 -0.7684,0.0334 -1.610499,-2.60816 -2.8731476,-5.67947 -0.627883,4.11156 -3.2190346,5.71501 -3.3408692,8.15171 -0.2004518,4.00905 4.7106248,5.3454 4.7106248,5.3454 z"
 />
  </g>
</svg>
